<?xml version="1.0" encoding="utf-8"?>
<!-- Generator: Adobe Illustrator 19.0.0, SVG Export Plug-In . SVG Version: 6.00 Build 0)  -->
<svg version="1.1" id="Ñëîé_1" xmlns="http://www.w3.org/2000/svg" xmlns:xlink="http://www.w3.org/1999/xlink" x="0px" y="0px"
	 viewBox="0 0 595 842" style="enable-background:new 0 0 595 842;" xml:space="preserve">
<style type="text/css">
	.st0{fill-rule:evenodd;clip-rule:evenodd;}
	.st1{fill-rule:evenodd;clip-rule:evenodd;fill:#BA482C;}
	.st2{fill-rule:evenodd;clip-rule:evenodd;fill:url(#SVGID_1_);}
</style>
<rect x="135.6" y="207.5" class="st0" width="283.5" height="283.5"/>
<path class="st1" d="M416.9,466.8h-2.8l-5.3-22l-1.8-1.8l1-7.4l0.8-5.3l-2.2-10.7l3.5-5.6l6.7,5V466.8L416.9,466.8z M135.6,207.5
	v84.8l3,0.2l5.7-2.1l3.9-1.6l1.3-3l3.4,3.9l3.2,1.3l3.2,2.7l2.7-2.8l7.4-1.8l2.9-2.1l0.2-2.7l-2.2-2.5l-0.5-11.1l-2.2-9.2l-9.8-0.9
	l-1.5-1.9l-8.3-0.1l-2.4-1.9l-4-4.7l-1.3-4.5l-0.7-4l1-3.4v-4.2l-3-3.6l-1.9-11.1l2.9,9.6l2.9,3.4l1.1,3.7l-1.5,4.9l1.5,7.3l5.3,4.9
	h3.5l6.3,0.9l3.9,3.4l6.2,0.1l-0.4-5.8l-1.9-3.4l-3-5.2l-1.8-6.4L160,233l0.1-8.8l2.6-8.2l-1.3-3.3l-4.4-1l-1.7-3l2,1.8l4.4,0.3
	l2,5.5l-2,4.3l-1.1,8.3l3,8.9l7.5-5.2l5.9-6.1l4.4-8.8l0.6-3.9l-2.8-6.6H135.6L135.6,207.5z M135.6,296l1-1.2l6.4-0.1l2.8-2.1
	l7.4,0.4l2.7,4.2l4.1-2.2l4.4-0.1v9.4L163,308l-2.8,2.8l0.1,7.3l5,7.3l6.8,5.3l11.5,5.9v3.6l-2.9,4.9l-0.5,4.5l-5.4,5.2l-3.8-1.5
	l-6.2-7.9l-2.4-0.4l-4-8l-4.1,5l4.3-2.8l2.9,6.5l-3.4,14.7l5.4-14.1l3.4,4.7l5.5,5l-0.6,5.2l3.4,4.9l-1,6.7l-3.1,5.5l-5.8,14.1
	l-2.3,1.2l-2.9-1.6l-4.2,1.9h3.5l2.2,2.5l-0.6,5.2l-2,11.1l-2.6,2.8l-6.3,3.6l-6.6,4.6l-4.4,3.9l-3.4,1.5l-0.3-0.8v-49h4.4l5.2-0.4
	l5.6,7.4l3.6,4.5l-1.1-5l-5.7-8.3l-4-2.5l-4.3,0.9h-3.7V354l1.7-1.9l4.2-6.8l1-9.9l4.8-1l3.7-3.4l5.1-4.6l5.5-2.8l-5.2-0.3l-3.4,2.2
	l-6,5.9l-5.6,0.4l-2,3.9l-0.9,5l-0.8,4.6l-2.3,2.1v-31.4l0.2,0.3l3,6.2l0.6,8.5l1.3-10.1l-1.7-2.1l-1.9-5.9l-1.5-1.1V296L135.6,296z
	 M135.6,437.2v39c0.9-0.5,1.9-1,2.9-1.5h7.7l3.4-1.2l-1.2-4.3l-3.1-11.3l-0.6-9.1l-4.7-7.7l-1-3.1l1.5-0.1l4.5,8.2l1.5,0.6l2.1-5
	l3.9-5.5l4.3-5.3l2.1-6.5l-0.6-5.6l-1.7-1.2l-6.1,4v3.6l-2-3.3l-11.7,10.1l0.1,5.2L135.6,437.2L135.6,437.2z M135.6,480.1l0.9-1.3
	l6.7-1.8l1.8,2.7l5.3-3.3l4.8-0.1l6.9-1.9l5.8-0.4l3.4,4.6l-2.7,6.2l2,6.2h-34.9V480.1L135.6,480.1z M411.6,483.1l0.4-14.5l-2.4-8
	l-4.9-14l-3.2,3.3l-3,2.4l-6.1,6.8l0.6,10.7l2.2,13.1L411.6,483.1L411.6,483.1z M356.4,490.9c-1.6-7.1-2.2-13.6-3.2-20.9l0.4-11.6
	l5.7-13.7l8.1-9.5l3.5,4.2l3,15.7l1.2,3l3.5,1.2l1,8l3.5,8l1,5l1.6-4.2l3.2,1.2l-2.2-4.2l-2.4-1.8l-2.6-8.3l-1-9.2l-3.2-0.6
	l-3.9-15.4l-3-5.6l3-5.9l4.3,1.2l6.1-6.8l3.9,0.6l10.8-9.2l5.9-0.3l-0.4,8l1.4,8.6l0.2,6.8l-1.2,3.3h-1.2l-3.5-9.2l-1.4-7.1
	l-1.4,5.6l4.7,12.5l-1.4,6.2l-6.7,5.6l-3.7,3.6l0.2,14.5v8.3l-3,2.7l-8.7,9.6H356.4L356.4,490.9z M350.2,490.9l-1.8-16.4l-1.2-18.3
	l2.8-5.2l-1-2.4l-11.4-13.2l-6.5,0.4l-4.5-5l-4,2.7l-10.6,19.6l0.5,3.3l4.4,9.4l2.5,3l2.2,9.1l-3.3-6.8l-3-3.4l-7,6.2l-4,1.2
	l1.3,4.5l1.5,5.2l0.5,6.3H350.2L350.2,490.9z M416.9,416.5v-15.9l-1.9,0.9l-3.1,7.6l-0.4,3.3C412.8,413.4,415.3,416.2,416.9,416.5
	L416.9,416.5z M416.9,395c-1.2,0.7-2,1.6-3.1,2.5l-1.5-1l-2.9-10.8l-0.1-7.9l1-3l-0.6-7.7l5-9.1l0.9-6.4l-0.6-8.2l-0.9,4.2l-0.2,7.6
	l-2.3,6.1l-2.6,5.2l-4.6-7.3l-2.9-8.5l0.2-5.3l-0.9-5l1.2-5.9l8.9-1.8l0.5,9.4l0.7,1.9l0.2-9.2l2.3-1.9l2.2,1.3V395L416.9,395z
	 M367.3,423.2c-0.3-1-0.2-1.6,0-2.7l-7.1-18.1l-2.6-12.8l-3.7-8l-4.9-5l-3.7-3.9l-3.5,2.1l-6.1-1.8h-10.2l-3,2.4l-1.4,11.6l-2.2,8.9
	l-3.7,6.8l1.6,4.2l3.9,4.5l1,6.5l-3.2-5.9l-2.4-2.1l0.6,10.1l6.7,8l5.1,0.6l3.2,3.9l7.1,0.3l5.3,4.5l6.5,8.3l1.8,0.3l3.4-8.3
	l4.5-4.5l2.6-1.5l1.8-4.7L367.3,423.2L367.3,423.2z M325.9,391.1l4.5,10.5l7.5,10.7l-6-4.9l-4.8-8L325.9,391.1L325.9,391.1z
	 M316.5,361.3l1.6,2.5l-1.7,12.2l-2.1,15.1l-3.5,9.8l-3.3,1.8l-6.6,0.6l-5.6,2.4l-5.8,2.7l-3.4-3.1l-3.4-10.1l-3.8-7.6l-3.8-8.8
	l0.4-3.9l6.4-9.5l4.7-1.9l2.2-3.1l4,4.5l6.2,0.9l6.3-3.4l6.3-1.5L316.5,361.3L316.5,361.3z M277.8,366.2l-4.1-3.9l-4.8-7.4l-1.4-3.9
	l-1.7-0.4l-3.7-7l-2.2-0.7l-1.5-2.4l-3.4-8.6l-3.4-9.5l-1-4.3l-4.8-0.4l-3,1.8l-1.5-1.5l-3.4-0.9l-4.4,1l-3,3.9l-3.4,1.3l0.4,3.1
	l4,8.3l0.4,11.7l3.5,7.1l-1.1,7.7l0.5,4.5l-1,3.6l-3.3,5.5l0.1,12.3l-1.3-7.1l-0.3-3.1l2.2-5.9l1.7-6.8l1.1-10.1l-3-5.3l-0.7-11.6
	l-2.7-7.1l-2.3-2.5l-0.8,3l-2,2.1l-4,4.9l-1.8,3.1l0.2,9.4l-2.6,8.5l-4.9,15.4l-0.6,4.6l2.5,5.2l4.5,6.2l5.9,3.9l3.3,2.5l2.1,1.5
	l0.2-4.2l-0.9-3.4l-0.2-9.5l-2.4-5.2l2.9,4.5l0.4,8.9l1.9,4.2l-0.5,2.8l-0.4,3.4l7.5-1.6l17-0.4l0.9,1.9l1.4,1.2l6.4-10.2l2.5-0.4
	l3-3.6l1.3-3.3l9.7-14.2V366.2L277.8,366.2z M225.1,400.6l-4.6,8.3l-2.7,8.9l-2.4,2.2l-0.2,6.1l-4,6.8l-1.3,3.9l-5.6,1.3l-5.4,3.9
	l-3.9-1.5l-1.3,5.3l2.4,5.3l0.2,5l1,3l-2.4,8.9l0.7,5.3l-3.3,5.8l-6.4,0.7l1.1-3.4l3.2-4.6l1.6-6.4l-2.4,6.4l-4.9,6.5l-8.3,0.7
	l0.4-5.9l4.5-10.5l3-7.4l-3-5.6l-0.6-7.4l-0.8,8.8l2.6,4.5l-2.4,7.7l-5.7,13.4l-2.4-0.4l-3.6-3.7h-5.5l-4-1.8l-8.2,1l-1.2-5.3
	l-1.2-12l2.1-9.9l3.4-7.3l4.2-3.3l2.6-6.8l1.4-5.5l-2.5-4l2.3-4.5l0.6-9.9l3-4.9l2.8-5.3l4.1-8l4.2-11.7l2.1-0.6l4.1,3.1l5.4,4.9
	l3.8,4.7l5.5,1l4.2-1.9l0.4-3.6l-1.2,2.2l-4.4,1l-4.6-2.5l-3.7-5l-5.7-4.2l-3.8-3.1l-1.7-6.1l-2.6-4.3l2.1-3.3l4.6-3.4l2.5-3.1
	l0.4-3.6l3.2-6.1l3.2-7.4l2.2-2.1l2.6,2.1l3.7,5.6l2.9,1.5l2.6-1.3l3.8-1.8l-4.1,0.3l-3.4-0.4l-3.3-5.3l-2.8-4.9l0.9-8.2l2.2-4.3
	l0.2-11.7l-1.9-3.7l-2-8.2l-0.5-4l3.6-0.6l4.1-4.3l4.3-0.1l2.3-3.4l5.9-0.3l2.2-2.1l4.2,1.2v5.2l-1.7,10.2l-2.1,2.4l-5,3.7l-2.6,4
	l-5.3,4.6l4-1l5-6.1l4.4-3.3l3.8,0.9l1.5,1.6l4.5-1.3l-4-0.3l-2.4-4.2l1.9-4.5l1.1-9.2l5.4-10.4l2.8-0.7l4.4,2.2l6.6,4.9l4.7,2.2
	l5.1,4.9l1.8,5.3l3.5,5l-3.9-9.6l-5.3-7.6l-7.3-4.5v-2.8l6.5-7l4.7-2.4l-3.9-0.3l-5.3,3l-2.9,5.5l-2,1.9l-2-2.2l-3.8-5.3l-4.3,0.6
	l-9.9-11.6l-3.3-6.4l-4.1-6.1l-2.2-0.3l-0.9-7.3l-4.2-4.3v-2.8l3.1-2.8l6.6-4l3.8-1.5l3.7-4.6l6.7-0.6l6.7,3.9l1.3,9.2l1.3,5
	l-2.3,7.7l2.5,4.5l0.6,11.7l-0.6-17.2l1.2-10.4l-2-6.7l-1.4-6.7l1.9-2.9h5.7l1.4,5.1l0.5,4.6l3.1,5.5l0.8,10.5l3.7,7.4l1.6,1.3
	l-1.3-4.9l-2.5-4.9l-0.8-6.7l-1.6-6.2l-1.4-3.9l-1.9-5.2v-2.7H258l-0.2,5.2l2.5,7.9l-1.5-7.4v-5.7h17.9l3,6.7l1.9,5l-2.4,5.2
	l3.8-5.6l0.2,5.2l-1.7,3.4l2.9-2.1l-0.3-3.8l0.1-6.2l-3.2-0.3l-3.4-7.5h9.5h3.4l3.1,11.3l3.4,5.6l3.2,0.1l3.9,0.7l9.3-2.4l1.3,2.8
	l1.3,8.5l2.4,5.9v9.4l-3.6,4l-3.4,5.9l-1.5,5.5l-2.4,5.2l1.1,4l0.5,6.1l-4.3-0.3l-3.8-3l-2.9,2.2l4.1,0.9l3.3,3l4.1-0.1l-0.1,12.6
	l3,2.7l2.5,4.5l2.6,6.2l0.9,2.4l0.6,5.5l2.2,4.7l0.2,4.5l-3.7,4.5l-4-1.2l-4-4.6l-5.9-3l-4.2-3l-3.4-3.6l-2-0.9l1.5-6.2l1.5-3.9
	l-0.3-6.4l3.8-4l1.7-3.3l-3,2.8l-3.4,3.1l0.2,5.9l-2.4,9.1l-2.4,3l-7.3,1.3l-5,1.5l-6.2-3.6l0.1-5.3l-3.4-2.8l-3.4-4.7l-1.1-1
	l-2-3.6l3.1-2.2l1.8-6.2l3.1-6.1l1.8-5.6l0.3-7.4l2-3.6l1.2-4.3l-0.5-3l-2.5,1l-1.8,3.7l-5.3-4.3l-5.4-2.8l-2.8-2.4l1-6.5l-1.6-6.1
	l-0.7,5.8l-1.6,4.6l0.6,4.9l3.4,2.2l5.2,3.7l5.8,3.3l-0.2,4.7l-0.2,5.9l-2.5,5.2l-3.1,6.8l-3,8l-3-0.9l-4.5,0.4l-4,0.3l-1.5-5.5
	l-0.6,4.6l-3.7-1.2l-4.5,0.4l4.6,0.9l4.1,1.9l4.4,0.6l4.2-0.4l2.8,0.6l1.2,3.7l-2.3,3.1l-4.1,6.5l-2.5,3.4l-4.9,0.6l-3.2,1.2
	l-2.9-2.7l-2.2-0.4l-0.7,2.5l-3.9,0.4l0.4-8.8l-0.4-4.3l0.6-4.7l3.4,1l-2.1-4h-6.2l3.5,3l-0.3,6.8l0.4,7l-0.1,4.2l-3.7,1.9l-3.9,3.1
	l-0.9,3l-0.6,4.5l-4.8,4.2l-1.8,3.3h-3.8l-3.7-1.8l2.6,3.4l2.7,1.3l0.1,12.9l-2.6,7.1l-2.9,9.6l-2.1,5.8l-2,3.7l-4.1-3.6l-4.4-5.5
	l3.8,6.1l3.4,3.4l1.4,2.2l2.1,1.8l6.1,7.9l7.5,6.4L225.1,400.6L225.1,400.6z M175.1,434.4l1.2-7.9l8.5-1.2l6.3-8.6l-8.9,7.1
	l-7.5-0.1C175.4,439.8,175.3,429.9,175.1,434.4L175.1,434.4z M168.6,402.7l-0.9,2.6l2.9,6.6l2.4,8.3l-1.4,5.8l2.7-3.8l1.1-4.5
	l-4.2-6.3L168.6,402.7L168.6,402.7z M262.7,490.9c0.4-2.9,0.7-3,2-6.8v-8.3l5.3-2.1l2.7-2.8l5.5,5.2l5.4,3.9l3.4,3.4l6.3,2.2
	l5.4-1.2l4.3-5.9l2.5,6.8l0.8,5.6H262.7L262.7,490.9z M260.1,490.9l0.3-7.2l1.2-4.5h-4.3l-7.6,0.3l-3.3,3.9l-3.3,2.6l-2.2,2.2
	l1.8-3.5l2.9-3.3l3.4-3.4l-2.7-2.5l2.8,0.8l1.7,1.1l5.9,0.2l4.8-0.2l1.7-3.2l-1.7-3.2l3.6-6.8l-2.7,6.8l1.6,2.8l3.9-1.9l2.9-3.8
	l-0.1-9.8l2.5-3.4l-0.4-14.2l-4.1-3.7l-4.9-4.8l-2.7-5.1l-5.1-0.1l3.1-2.6l4.1,0.1l0.4,3.1l5.9,5.8l4.9,3.4l2.5-3.9l1.5-0.7l4.1-8
	l0.7-11.5l3.5-3.3l-1.2-3.3l-3-6l-0.7-5.6l-4.7-8.6l-3.5-7.1l-1.5,1.1l-3,4.7l-1.5,4.4l-4.5,3.3l-2.1,1.2l-4.2,9l-2.3,9.3l-0.1,6.7
	l-2,7.4l-0.8-3.8l-2-0.7l2.3-1.8l1.2-11.2l0.9-2.1l-0.4-4.7l-3.7-0.3l-4.7,0.4l-4.1-1l-1.5,0.5l-4.4-1l-4.2,1.8l0.9,4.2l2.8,7.6
	l-3.6-6.4l-1.2-4.7l-3.2,1.4l-0.8,4.3l-1.4,1.9l-3.1,3.9l-0.9,3l-2.4,3.7l-0.6,5.9l-3.3,4.7L212,435l-1,3.9l-6.1,0.5l-0.7,1.6
	l-3.7,2.5l-1.5,3l1,3.7l-0.4,6.9l1.2,2.4l-0.2,7.7l-1,5.7l2.4,2.5l0.9,2.1l6.6-0.1l5.2-2.2l3.5,3.4l2.3-0.7l2.7,0.1l0.8,2.3l4.4-1.9
	l3.6,0.7l3.2-4.2l5.9-3.6l3-6.5l0.5-11.2l0.8-4.5l-3-0.8l-2.5-3.3l-2.9-2.3l-3.3,6l-4.7,4.7l-6.8,1l-0.3,17.7l-3.7,2.2l2.8-3.7
	l0-17.7l4.1-0.2l3.9-1.9l4.9-5.7l1.8-3.3l0-9l0.8-3.1l-2.3-4.6l-4.4-6.3l-0.8-4.4l3.8,5.5l4.7,8.5l-0.4,9.2l-0.6,2.2l3.9,3.2
	l2.8,3.3l3.8,0.5l3.7,2l4.1-0.9l3.2-1.6l4.4-1l3.3-4.5l-1.8,5.1l-5,3.3l-6.2,3l-5.8-1.1l-0.4,6.4l0.4,8.9l-2.6,3.5l0.5,3.4l-4,0.9
	l-4.5,2.6l-2.9,4.1l-7.1,0.3l-1.5,2.2v7.7H260.1L260.1,490.9z M285.1,425.7v-7.9l5.3-7.3l4.9,0.7l3.3,0.4l6.3-5.5l2.9,3.6l3.3-3.9
	l3,2.1l0.4,3.9l-0.7,5.5l0.6,3.1l6.6,8.2l-0.2,3.7l-6.5,11.9l-2.9,5.8l-3.2,0.3l-2.5-5.8v7.6l-5,7.4l0.3,7.9l2.2-8.2l4.8-6.4l2.1,1
	l4.2,11.3l-1,2.4l-5.4,4h-3.6l-5.1,7.7l-2.8,2.1l-5.4,0.3l-10.2-8.2l-6.6-5l-0.7-1.9l1.4-8.2l2.9-5.2l0.1-10.2l0.8-6.4l4.5-7.6
	L285.1,425.7L285.1,425.7z M221.6,490.9l0.2-10.1h-1.2l-1.6,1.5l-3.4-1.2l-2-2.4l-5.3,2.4l-5.8-0.1l-3.7,5.8v4.1H221.6L221.6,490.9z
	 M197.1,490.9c-0.3-2.2-0.2-3.8-0.1-6l4-3.3l1.3-2.8l-3.9-5.5l-1.6,6.4l-3.4,1.5l-4.4,1.2l-4.1,4.5L180,484l-2.6,3.1l-2.6-0.7
	l-3.3-4.3l-0.1,3.7l1.8,5.2H197.1L197.1,490.9z M370,424.6l19.3-11.9l6.4-4.5l5.9-1.5l-4.3-9.2l-7.5-7.7l8.5,6.5l5.5,10.4h4.3
	l2.6-8.9l-4.3-15.1l0.8-5.6l-0.8-8l-3.9-7.1l-2.6-8.9l-0.6-18.1l4.7-3.6l8.9-4.7l-0.2-10.4l4.4-5.9v-23.7h-6.1l-3.5-6.2l0.4-6.5
	l-1.6-1.2l-9.1,4.7l-1,8.6l1.8,8.3l4.9,9.2l-5.7,8.6l2.8-6.8l-3.4-7.4l-2-8.3l-6.9,6.2l0.8,3.9l3.9,10.1l3.5,8l5.3,11.3l-1.2,1.8
	l-6.5-4.5l-11.8,14l-0.4,5.6l5.7,10.7l0.4,8l7.3-3l3.5-5.9l-3.4,8.3l-7.3,3.6l3,8.9l3.4,12.5l-2.6-4.7l-5.3-12.5l-2.6-17.2l-2.8-3.9
	l-1.2-5l-8.5,0.9l-6.7,8l0.6,8.6l3.2,2.7l-1.2,12.8l-2.6-2.7l-4.7-1.2l-3,5l6.7,16.9l9.9-10.4l7.7,0.3l-5.5,1.2l-11.6,13.4l6.1,16.6
	C369.7,422.3,369.1,422.1,370,424.6L370,424.6z M416.9,330.7l-2.7-8.5l0.2-4.9l2.5-3.9V330.7L416.9,330.7z M416.9,282.9v-75.4h-22
	l-1.3,3l-0.4,6.5l1.8,9.2l6.4,5.2l3.8,10.7l-5.2-8.6l-4.9-4.7l-0.9,5l1.7,5l-0.5,4.3l-8.8,1.8l-7.7,6.4l6.9-8.6l7.7-2.7l0.4-2.1
	l-1.6-3.1l-0.6-9.1l-1.3-7l-1.6-4.3l-6.9,1.8l-3.9,3l-5-1.6l-4.3-1.2l-1.9,3.7l-1.7,6.2l1.1,10.1l4.7,9.9l6.4,7.7l-1,5.6l6.9,1
	l8.8,15.3l-8.8-12l-7.1-1.3l-1.2,4.2l-0.2-6.8l0.9-5.2l-2.3-1.5l-3.9-5.2l-2.8-4.6l-3.8,3.1l-5.2,0.9l4.3-3.4l2.6-2.2l0.4-3.7
	l-2.2-1.3l-0.5-12.5l2.7-5.6l0.3-3.4l-5.4,0.6l-5.1-3.1l-3.8-2.7l-9.5-2.7h-14l-2.9,7.3l-3.8,4.7l-4.1,2.4l0.6,6.7l2.4,10.5l3,12.6
	l2.5,7.1l8.3,0.1l2.7-2.4l1-9.6l0.8-4.6l-3.3-4.6l-2-4.7l-0.6-5.3l-4.4-0.4l-0.7-5.8l1.5,3.7l3.9,0.6l2.8,9.5l4.6,8.5l-1.2,4.6
	l-0.6,5.2l3.4,0.9l6.5-1.2l4.7-3.1l3.1-4.7l-0.7,5l-4.1,4l-6.8,2.5l1.1,8.5l3,2.5l2.2,6.7l-3.4-5.5l-2.3-0.7l-2.7,2.4l-0.3,4.5
	l-1.8,3.7l-0.9-3.1l-0.2-3.6l3.4-4.7l-0.4-10.4l-3.9-0.4l-1,3.7l-1.9,2.4l-0.7,5l-0.5-5.5h-3.4l-4.7-0.1l-2.9-0.7l-4.4-0.1l-2.9,4.3
	l2.1-5.9l4-0.4l0.6-2.7l-2-5.6l-3,1.9l-2.6,4.6l-3.2,7.6l-2.2,5.2l2,4.7l2.9-0.1l-2.5,3.4v11.1l0.9,4l1.2-2.7l3.8-1.6l3.6-3.4
	l-1.8,3.6l-3.6,2.2l0.4,9.5l3.5,8.6l1.9-2.7l5.2-8.2l2.6-9.1l3.6-13.1l3-2.2l0.5,1.8l-2,1.6l-3.3,12.8l-4.2,11.3l-5,8.3l-0.5,4
	l1.8,3.1l1.1,4.5l2.1-4.3l5.6-3.3l5.4,1l5.7,3.3l3.8,6.1l2-2.7l5.4-6.7l3.9-0.9l-1.1,2.5L354,320l-6.1,6.4l2.7,7.6l3.1,2.1l5.5,7.4
	l-1.9-11.4l3.8,15.6l-4.4-4.2l-3.7-6.1l-2.4-0.4l-3.4-5.2l-3.1,5.6l-4,2.8l4.6-6.4l1.5-5.3l-1.2-4.3l-4.9-5.5l-6.3-2.2l-4.2,0.7
	l-3.5,4.5l-2.6,5.5l-3,4.7l-1.9,3l2.8,5.6l-0.1,3.9l-0.9,9.4l2.9,6.1l-1.2,5.2l1.6,4.3l2.6-4.7l5.6,4.2l4.3-1.3l0.9,3.4l6.7,0.4
	l-0.1-3.3l-3-5.3l5.4,5.8l4.5,6.7l2.1-1l3.9,0.3l3.3-6.8l0.2-10.5l-3.2,3.7l-1.2,4.5l1.4,3.4l-2.7-1l-1-3.9l3.9-5.2l1.1-4.7
	l-4.2-3.3l1.1-4.5l3.3,4.5l3,4.2l5.6-8.2l4.5-4.5l6.4-1.3l14.1-17.4v-2.5l-2.4-5.9l-2.7-10.5l-3.4-3.3l-4.6,1.9l-5.4-0.4l-0.6-2.7
	l-1.6-2.7l-2,4.5l1.8,3.6l-0.2,4.5l1.5,8.8l4,6.8l3.5,4.3l0.1,3.9l-4-5.3l-2.8-5.8l-2.6,2.8l1.5-4.2l-1.4-3.9l-1.1-4.9l-5.1,3.9
	l-4.6-0.7l-0.4-2.2l3-0.4l6.2-1.8l0.2-2.1l-1.7-5.9l-3.7,5.3l-0.8,3l-0.4-2.5l4.3-8.5l2.7-3l-1.3-4l-3.4-6.5l-1.3,1l-0.9-2.4
	l-4.7-4.9l-4.8-5.6l-2.3-7.7l3.4,5.2l5.6,3.6l3.7,7.1l3.1,0.9v-2.7l-2.7-7.7l3.3,6.1l2,7.7l5.4,8.3l3.2,2.5l6.2-1.3l10.3-13.8
	l0.7-7.9l6.6-5.6l3.9-0.4l0.7-15.3l1.3-11.1l1.9,3.6v8v12.8l0.5,5.5l-0.1,5.8l1.2,3.6L416.9,282.9L416.9,282.9z M292,360.7l9.4-0.9
	l3.9-2.7l4.4-2.4l5.7,3.7l2.9,1.3l1.1-3.4l-0.8-8.6l-0.9-10.2l-2.3-4.2l-4.6-3.6l-2.8-4.7l-6.3-1.9l-5.9-2.7l-1.3,4.6l-2.7,7
	l1.8,4.2l1.2,7.1l-2.8,4.7l-2.2,4l-0.4,4.3L292,360.7L292,360.7z M293.7,318.4l-1.8-0.7l-8.1,0.1l-3,3l-4.4,0.3l-5.4,3.9l-1.3,8.2
	v-8.9l1.1-6.5l-1.6-6.1l-6-8.2l-2.8-0.3l-7.8,11.9l-0.9,2.4l2.4,7.9l5.6,12.8l6,5.9l4,8.2l5.5,8.6l3.8,3.9l3.5-3.7l3.4-1.9l-0.1-2.5
	l1.1-7.6l2.9-4.9l0.6-5l-0.9-6.4l2-6.5L293.7,318.4L293.7,318.4z M294.5,207.5l2.3,13.4l5,1.5l7.8-0.9l7.3-2.8l4.1-5.2l2.3-6H294.5
	L294.5,207.5z M359.4,207.5h31.3l-1.8,4.2l-5.8,1.5l-6.1,2.4l-6.5-0.6l1.2-2.4l-1.2-2.4l-4.5,2.1L359.4,207.5L359.4,207.5z
	 M181.9,207.5h36.8l-3.3,4.6l-7.5,5.5L200,221l-5.1-2.2l-8.5-4.7h-2.8L181.9,207.5L181.9,207.5z M224.6,265.1l-2.4,7.1l-2.8,1.3
	l-2.3-1.2l-3.9,1.5l-4.5,1.3l-5.5,1.6l-5.5,3.1l-6.9,3.7h-6.1l-4.9-6.2l3.4,6.8l-1.4,3.7l8.9-0.1l2.6,7.6l0.8,10.5l-2,11l-0.6,9.4
	l-3.8,5.2l-3.3,3.6l-2.6-2.8l-7.3-4.6l-6.7-5.8l-5.2-6.7l-0.4-4.2l3.2-1.6l2-3.4v-7.3l-1-5.5l7.4-3.7l5.7-1.6l-3.7-1.3l-2.2-11.7
	l-2.1-11l-0.5-8.9l-1.5-3.6l-5.6-7.4l-0.6-4l4.4-1.9l6.7-4.9l5.2-7l3.5-8l5.2-0.9l4.6,4.2l7,2.8l-4,4l-3.3,7.9l-2.6,8.5l-0.5,7.3
	l3-11.4l3.3-8.9l3.9-3.1l-1.4,10.8l-5,7.3l0.2,10.1l0.6-8.5l1.7-1.2l4.7-6.1l-0.1-7.3l1.2-6.4l4.5,5.3l0.3,6.8l6.6,8.2l6.7,10.4
	L224.6,265.1z"/>
<radialGradient id="SVGID_1_" cx="277.3517" cy="349.2142" r="200.4377" gradientUnits="userSpaceOnUse">
	<stop  offset="0" style="stop-color:#F58220"/>
	<stop  offset="1" style="stop-color:#F58220"/>
</radialGradient>
<path class="st2" d="M419.1,466.8h-2.8l-5.3-22l-1.8-1.8l1-7.4l0.8-5.3l-2.2-10.7l3.5-5.6l6.7,5V466.8L419.1,466.8z M413.7,483.1
	l0.4-14.5l-2.4-8l-4.9-14l-3.2,3.3l-3,2.4l-6.1,6.8l0.6,10.7l2.2,13.1L413.7,483.1L413.7,483.1z M358.5,490.9
	c-1.6-7.1-2.2-13.6-3.2-20.9l0.4-11.6l5.7-13.7l8.1-9.5l3.5,4.2l3,15.7l1.2,3l3.5,1.2l1,8l3.5,8l1,5l1.6-4.2l3.2,1.2l-2.2-4.2
	l-2.4-1.8l-2.6-8.3l-1-9.2l-3.2-0.6l-3.9-15.4l-3-5.6l3-5.9l4.3,1.2l6.1-6.8l3.9,0.6l10.8-9.2l5.9-0.3l-0.4,8l1.4,8.6l0.2,6.8
	l-1.2,3.3h-1.2l-3.5-9.2l-1.4-7.1l-1.4,5.6l4.7,12.5l-1.4,6.2l-6.7,5.6l-3.7,3.6l0.2,14.5v8.3l-3,2.7l-8.7,9.6H358.5L358.5,490.9z
	 M352.3,490.9l-1.8-16.4l-1.2-18.3l2.8-5.2l-1-2.4l-11.4-13.2l-6.5,0.4l-4.5-5l-4,2.7L314,453.1l0.5,3.3l4.4,9.4l2.5,3l2.2,9.1
	l-3.3-6.8l-3-3.4l-7,6.2l-4,1.2l1.3,4.5l1.5,5.2l0.5,6.3H352.3L352.3,490.9z M419.1,416.5v-15.9l-1.9,0.9l-3.1,7.6l-0.4,3.3
	C414.9,413.4,417.4,416.2,419.1,416.5L419.1,416.5z M419.1,395c-1.2,0.7-2,1.6-3.1,2.5l-1.5-1l-2.9-10.8l-0.1-7.9l1-3l-0.6-7.7
	l5-9.1l0.9-6.4l-0.6-8.2l-0.9,4.2l-0.2,7.6l-2.3,6.1l-2.6,5.2l-4.6-7.3l-2.9-8.5l0.2-5.3l-0.9-5l1.2-5.9l8.9-1.8l0.5,9.4l0.7,1.9
	l0.2-9.2l2.3-1.9l2.2,1.3V395L419.1,395z M369.4,423.2c-0.3-1-0.2-1.6,0-2.7l-7.1-18.1l-2.6-12.8l-3.7-8l-4.9-5l-3.7-3.9l-3.5,2.1
	l-6.1-1.8h-10.2l-3,2.4l-1.4,11.6l-2.2,8.9l-3.7,6.8l1.6,4.2l3.9,4.5l1,6.5l-3.2-5.9l-2.4-2.1l0.6,10.1l6.7,8l5.1,0.6l3.2,3.9
	l7.1,0.3l5.3,4.5l6.5,8.3l1.8,0.3l3.4-8.3l4.5-4.5l2.6-1.5l1.8-4.7L369.4,423.2L369.4,423.2z M328,391.1l4.5,10.5l7.5,10.7l-6-4.9
	l-4.8-8L328,391.1L328,391.1z M318.6,361.3l1.6,2.5l-1.7,12.2l-2.1,15.1l-3.5,9.8l-3.3,1.8l-6.6,0.6l-5.6,2.4l-5.8,2.7l-3.4-3.1
	l-3.4-10.1l-3.8-7.6l-3.8-8.8l0.4-3.9l6.4-9.5l4.7-1.9l2.2-3.1l4,4.5l6.2,0.9l6.3-3.4l6.3-1.5L318.6,361.3L318.6,361.3z
	 M279.9,366.2l-4.1-3.9l-4.8-7.4l-1.4-3.9l-1.7-0.4l-3.7-7l-2.2-0.7l-1.5-2.4l-3.4-8.6l-3.4-9.5l-1-4.3l-4.8-0.4l-3,1.8l-1.5-1.5
	L240,317l-4.4,1l-3,3.9l-3.4,1.3l0.4,3.1l4,8.3l0.4,11.7l3.5,7.1l-1.1,7.7l0.5,4.5l-1,3.6l-3.3,5.5l0.1,12.3l-1.3-7.1l-0.3-3.1
	l2.2-5.9l1.7-6.8l1.1-10.1l-3-5.3l-0.7-11.6l-2.7-7.1l-2.3-2.5l-0.8,3l-2,2.1l-4,4.9l-1.8,3.1l0.2,9.4l-2.6,8.5l-4.9,15.4l-0.6,4.6
	l2.5,5.2l4.5,6.2l5.9,3.9l3.3,2.5l2.1,1.5l0.2-4.2l-0.9-3.4l-0.2-9.5l-2.4-5.2l2.9,4.5l0.4,8.9l1.9,4.2l-0.5,2.8l-0.4,3.4l7.5-1.6
	l17-0.4l0.9,1.9l1.4,1.2l6.4-10.2l2.5-0.4l3-3.6l1.3-3.3l9.7-14.2V366.2L279.9,366.2z M227.3,400.6l-4.6,8.3l-2.7,8.9l-2.4,2.2
	l-0.2,6.1l-4,6.8l-1.3,3.9l-5.6,1.3l-5.4,3.9l-3.9-1.5l-1.3,5.3l2.4,5.3l0.2,5l1,3l-2.4,8.9l0.7,5.3l-3.3,5.8L188,480l1.1-3.4
	l3.2-4.6l1.6-6.4l-2.4,6.4l-4.9,6.5l-8.3,0.7l0.4-5.9l4.5-10.5l3-7.4l-3-5.6l-0.6-7.4l-0.8,8.8l2.6,4.5l-2.4,7.7l-5.7,13.4l-2.4-0.4
	l-3.6-3.7h-5.5l-4-1.8l-8.2,1l-1.2-5.3l-1.2-12l2.1-9.9l3.4-7.3l4.2-3.3l2.6-6.8l1.4-5.5l-2.5-4l2.3-4.5l0.6-9.9l3-4.9l2.8-5.3
	l4.1-8l4.2-11.7l2.1-0.6l4.1,3.1l5.4,4.9l3.8,4.7l5.5,1l4.2-1.9l0.4-3.6l-1.2,2.2l-4.4,1l-4.6-2.5l-3.7-5l-5.7-4.2l-3.8-3.1
	l-1.7-6.1l-2.6-4.3l2.1-3.3l4.6-3.4l2.5-3.1l0.4-3.6l3.2-6.1l3.2-7.4l2.2-2.1l2.6,2.1l3.7,5.6l2.9,1.5l2.6-1.3l3.8-1.8l-4.1,0.3
	l-3.4-0.4l-3.3-5.3l-2.8-4.9l0.9-8.2l2.2-4.3l0.2-11.7l-1.9-3.7l-2-8.2l-0.5-4l3.6-0.6l4.1-4.3l4.3-0.1l2.3-3.4l5.9-0.3l2.2-2.1
	l4.2,1.2v5.2l-1.7,10.2l-2.1,2.4l-5,3.7l-2.6,4l-5.3,4.6l4-1l5-6.1l4.4-3.3l3.8,0.9l1.5,1.6l4.5-1.3l-4-0.3l-2.4-4.2l1.9-4.5
	l1.1-9.2l5.4-10.4l2.8-0.7l4.4,2.2l6.6,4.9l4.7,2.2l5.1,4.9l1.8,5.3l3.5,5l-3.9-9.6l-5.3-7.6l-7.3-4.5v-2.8l6.5-7l4.7-2.4l-3.9-0.3
	l-5.3,3l-2.9,5.5l-2,1.9l-2-2.2l-3.8-5.3l-4.3,0.6l-9.9-11.6l-3.3-6.4l-4.1-6.1l-2.2-0.3l-0.9-7.3l-4.2-4.3v-2.8l3.1-2.8l6.6-4
	l3.8-1.5l3.7-4.6l6.7-0.6l6.7,3.9l1.3,9.2l1.3,5l-2.3,7.7l2.5,4.5l0.6,11.7l-0.6-17.2l1.2-10.4l-2-6.7l-1.4-6.7l1.9-2.9h5.7l1.4,5.1
	l0.5,4.6l3.1,5.5l0.8,10.5l3.7,7.4l1.6,1.3L254,237l-2.5-4.9l-0.8-6.7l-1.6-6.2l-1.4-3.9l-1.9-5.2v-2.7h14.2l-0.2,5.2l2.5,7.9
	l-1.5-7.4v-5.7h17.9l3,6.7l1.9,5l-2.4,5.2l3.8-5.6l0.2,5.2l-1.7,3.4l2.9-2.1l-0.3-3.8l0.1-6.2l-3.2-0.3l-3.4-7.5h9.5h3.4l3.1,11.3
	l3.4,5.6l3.2,0.1l3.9,0.7l9.3-2.4l1.3,2.8l1.3,8.5l2.4,5.9v9.4l-3.6,4l-3.4,5.9l-1.5,5.5l-2.4,5.2l1.1,4l0.5,6.1l-4.3-0.3l-3.8-3
	l-2.9,2.2l4.1,0.9l3.3,3l4.1-0.1l-0.1,12.6l3,2.7l2.5,4.5l2.6,6.2l0.9,2.4l0.6,5.5l2.2,4.7l0.2,4.5l-3.7,4.5l-4-1.2l-4-4.6l-5.9-3
	l-4.2-3l-3.4-3.6l-2-0.9l1.5-6.2l1.5-3.9l-0.3-6.4l3.8-4l1.7-3.3l-3,2.8l-3.4,3.1l0.2,5.9l-2.4,9.1l-2.4,3l-7.3,1.3l-5,1.5l-6.2-3.6
	l0.1-5.3l-3.4-2.8l-3.4-4.7l-1.1-1l-2-3.6l3.1-2.2l1.8-6.2l3.1-6.1l1.8-5.6l0.3-7.4l2-3.6l1.2-4.3l-0.5-3l-2.5,1l-1.8,3.7l-5.3-4.3
	l-5.4-2.8l-2.8-2.4l1-6.5l-1.6-6.1l-0.7,5.8l-1.6,4.6l0.6,4.9l3.4,2.2l5.2,3.7l5.8,3.3l-0.2,4.7l-0.2,5.9l-2.5,5.2l-3.1,6.8l-3,8
	l-3-0.9l-4.5,0.4l-4,0.3l-1.5-5.5l-0.6,4.6l-3.7-1.2l-4.5,0.4l4.6,0.9l4.1,1.9l4.4,0.6l4.2-0.4l2.8,0.6l1.2,3.7l-2.3,3.1l-4.1,6.5
	l-2.5,3.4l-4.9,0.6l-3.2,1.2l-2.9-2.7l-2.2-0.4l-0.7,2.5l-3.9,0.4l0.4-8.8l-0.4-4.3l0.6-4.7l3.4,1l-2.1-4h-6.2l3.5,3l-0.3,6.8l0.4,7
	l-0.1,4.2l-3.7,1.9l-3.9,3.1l-0.9,3l-0.6,4.5l-4.8,4.2l-1.8,3.3h-3.8l-3.7-1.8l2.6,3.4l2.7,1.3l0.1,12.9l-2.6,7.1l-2.9,9.6l-2.1,5.8
	l-2,3.7l-4.1-3.6l-4.4-5.5l3.8,6.1l3.4,3.4l1.4,2.2l2.1,1.8l6.1,7.9l7.5,6.4L227.3,400.6L227.3,400.6z M177.2,434.4l1.2-7.9l8.5-1.2
	l6.3-8.6l-8.9,7.1l-7.5-0.1C177.6,439.8,177.5,429.9,177.2,434.4L177.2,434.4z M170.7,402.7l-0.9,2.6l2.9,6.6l2.4,8.3l-1.4,5.8
	l2.7-3.8l1.1-4.5l-4.2-6.3L170.7,402.7L170.7,402.7z M264.8,490.9c0.4-2.9,0.7-3,2-6.8v-8.3l5.3-2.1l2.7-2.8l5.5,5.2l5.4,3.9
	l3.4,3.4l6.3,2.2l5.4-1.2l4.3-5.9l2.5,6.8l0.8,5.6H264.8L264.8,490.9z M262.3,490.9l0.3-7.2l1.2-4.5h-4.3l-7.6,0.3l-3.3,3.9
	l-3.3,2.6l-2.2,2.2l1.8-3.5l2.9-3.3l3.4-3.4l-2.7-2.5l2.8,0.8l1.7,1.1l5.9,0.2l4.8-0.2l1.7-3.2l-1.7-3.2l3.6-6.8l-2.7,6.8l1.6,2.8
	l3.9-1.9l2.9-3.8l-0.1-9.8l2.5-3.4l-0.4-14.2l-4.1-3.7l-4.9-4.8l-2.7-5.1l-5.1-0.1l3.1-2.6l4.1,0.1l0.4,3.1l5.9,5.8l4.9,3.4l2.5-3.9
	l1.5-0.7l4.1-8l0.7-11.5l3.5-3.3l-1.2-3.3l-3-6l-0.7-5.6l-4.7-8.6l-3.5-7.1l-1.5,1.1l-3,4.7l-1.5,4.4l-4.5,3.3l-2.1,1.2l-4.2,9
	l-2.3,9.3l-0.1,6.7l-2,7.4l-0.8-3.8l-2-0.7l2.3-1.8l1.2-11.2l0.9-2.1l-0.4-4.7l-3.7-0.3l-4.7,0.4l-4.1-1l-1.5,0.5l-4.4-1l-4.2,1.8
	l0.9,4.2l2.8,7.6l-3.6-6.4l-1.2-4.7l-3.2,1.4l-0.8,4.3l-1.4,1.9l-3.1,3.9l-0.9,3l-2.4,3.7l-0.6,5.9l-3.3,4.7l-2.1,3.4l-1,3.9
	l-6.1,0.5l-0.7,1.6l-3.7,2.5l-1.5,3l1,3.7l-0.4,6.9l1.2,2.4l-0.2,7.7l-1,5.7l2.4,2.5l0.9,2.1l6.6-0.1l5.2-2.2l3.5,3.4l2.3-0.7
	l2.7,0.1l0.8,2.3l4.4-1.9l3.6,0.7l3.2-4.2l5.9-3.6l3-6.5l0.5-11.2l0.8-4.5l-3-0.8l-2.5-3.3l-2.9-2.3l-3.3,6l-4.7,4.7l-6.8,1
	l-0.3,17.7l-3.7,2.2l2.8-3.7l0-17.7l4.1-0.2l3.9-1.9l4.9-5.7l1.8-3.3l0-9l0.8-3.1l-2.3-4.6l-4.4-6.3l-0.8-4.4l3.8,5.5l4.7,8.5
	l-0.4,9.2l-0.6,2.2l3.9,3.2l2.8,3.3l3.8,0.5l3.7,2l4.1-0.9l3.2-1.6l4.4-1l3.3-4.5l-1.8,5.1l-5,3.3l-6.2,3l-5.8-1.1l-0.4,6.4l0.4,8.9
	l-2.6,3.5l0.5,3.4l-4,0.9l-4.5,2.6l-2.9,4.1l-7.1,0.3l-1.5,2.2v7.7H262.3L262.3,490.9z M287.2,425.7v-7.9l5.3-7.3l4.9,0.7l3.3,0.4
	l6.3-5.5l2.9,3.6l3.3-3.9l3,2.1l0.4,3.9l-0.7,5.5l0.6,3.1l6.6,8.2l-0.2,3.7l-6.5,11.9l-2.9,5.8l-3.2,0.3l-2.5-5.8v7.6l-5,7.4
	l0.3,7.9l2.2-8.2l4.8-6.4l2.1,1l4.2,11.3l-1,2.4l-5.4,4h-3.6l-5.1,7.7l-2.8,2.1l-5.4,0.3l-10.2-8.2l-6.6-5l-0.7-1.9l1.4-8.2l2.9-5.2
	l0.1-10.2l0.8-6.4l4.5-7.6L287.2,425.7L287.2,425.7z M223.7,490.9l0.2-10.1h-1.2l-1.6,1.5l-3.4-1.2l-2-2.4l-5.3,2.4l-5.8-0.1
	l-3.7,5.8v4.1H223.7L223.7,490.9z M199.3,490.9c-0.3-2.2-0.2-3.8-0.1-6l4-3.3l1.3-2.8l-3.9-5.5l-1.6,6.4l-3.4,1.5l-4.4,1.2l-4.1,4.5
	l-4.9-2.8l-2.6,3.1l-2.6-0.7l-3.3-4.3l-0.1,3.7l1.8,5.2H199.3L199.3,490.9z M172.7,490.9l-2-6.2l2.7-6.2l-3.4-4.6l-5.8,0.4l-6.9,1.9
	l-4.8,0.1l-5.3,3.3l-1.8-2.7l-6.7,1.8l-3,4.5v7.7H172.7L172.7,490.9z M135.6,477.6c1.7-1.3,3.3-2,5-3h7.7l3.4-1.2l-1.2-4.3
	l-3.1-11.3l-0.6-9.1l-4.7-7.7l-1-3.1l1.5-0.1l4.5,8.2l1.5,0.6l2.1-5l3.9-5.5l4.3-5.3l2.1-6.5l-0.6-5.6l-1.7-1.2l-6.1,4v3.6l-2-3.3
	l-11.7,10.1l0.1,5.2l-1.9,0.3l-0.1-7.4l-1.6-1.5V477.6L135.6,477.6z M372.1,424.6l19.3-11.9l6.4-4.5l5.9-1.5l-4.3-9.2l-7.5-7.7
	l8.5,6.5l5.5,10.4h4.3l2.6-8.9l-4.3-15.1l0.8-5.6l-0.8-8l-3.9-7.1l-2.6-8.9l-0.6-18.1l4.7-3.6l8.9-4.7l-0.2-10.4l4.4-5.9v-23.7h-6.1
	l-3.5-6.2l0.4-6.5l-1.6-1.2l-9.1,4.7l-1,8.6l1.8,8.3l4.9,9.2l-5.7,8.6l2.8-6.8l-3.4-7.4l-2-8.3l-6.9,6.2l0.8,3.9l3.9,10.1l3.5,8
	l5.3,11.3l-1.2,1.8l-6.5-4.5l-11.8,14l-0.4,5.6l5.7,10.7l0.4,8l7.3-3l3.5-5.9l-3.4,8.3l-7.3,3.6l3,8.9L396,389l-2.6-4.7l-5.3-12.5
	l-2.6-17.2l-2.8-3.9l-1.2-5l-8.5,0.9l-6.7,8l0.6,8.6l3.2,2.7l-1.2,12.8l-2.6-2.7l-4.7-1.2l-3,5l6.7,16.9l9.9-10.4l7.7,0.3l-5.5,1.2
	l-11.6,13.4l6.1,16.6C371.8,422.3,371.2,422.1,372.1,424.6L372.1,424.6z M419.1,330.7l-2.7-8.5l0.2-4.9l2.5-3.9V330.7L419.1,330.7z
	 M419.1,282.9v-75.4h-22l-1.3,3l-0.4,6.5l1.8,9.2l6.4,5.2l3.8,10.7l-5.2-8.6l-4.9-4.7l-0.9,5l1.7,5l-0.5,4.3l-8.8,1.8l-7.7,6.4
	l6.9-8.6l7.7-2.7l0.4-2.1l-1.6-3.1l-0.6-9.1l-1.3-7l-1.6-4.3l-6.9,1.8l-3.9,3l-5-1.6l-4.3-1.2l-1.9,3.7l-1.7,6.2l1.1,10.1l4.7,9.9
	l6.4,7.7l-1,5.6l6.9,1l8.8,15.3l-8.8-12l-7.1-1.3l-1.2,4.2l-0.2-6.8l0.9-5.2l-2.3-1.5l-3.9-5.2l-2.8-4.6l-3.8,3.1l-5.2,0.9l4.3-3.4
	l2.6-2.2l0.4-3.7l-2.2-1.3l-0.5-12.5l2.7-5.6l0.3-3.4L362,216l-5.1-3.1l-3.8-2.7l-9.5-2.7h-14l-2.9,7.3l-3.8,4.7l-4.1,2.4l0.6,6.7
	l2.4,10.5l3,12.6l2.5,7.1l8.3,0.1l2.7-2.4l1-9.6l0.8-4.6l-3.3-4.6l-2-4.7l-0.6-5.3l-4.4-0.4l-0.7-5.8l1.5,3.7l3.9,0.6l2.8,9.5
	l4.6,8.5l-1.2,4.6l-0.6,5.2l3.4,0.9l6.5-1.2l4.7-3.1l3.1-4.7l-0.7,5l-4.1,4l-6.8,2.5l1.1,8.5l3,2.5l2.2,6.7l-3.4-5.5l-2.3-0.7
	l-2.7,2.4l-0.3,4.5l-1.8,3.7l-0.9-3.1l-0.2-3.6l3.4-4.7l-0.4-10.4l-3.9-0.4l-1,3.7l-1.9,2.4l-0.7,5l-0.5-5.5h-3.4l-4.7-0.1l-2.9-0.7
	l-4.4-0.1l-2.9,4.3l2.1-5.9l4-0.4l0.6-2.7l-2-5.6l-3,1.9l-2.6,4.6l-3.2,7.6l-2.2,5.2l2,4.7l2.9-0.1l-2.5,3.4v11.1l0.9,4l1.2-2.7
	l3.8-1.6l3.6-3.4l-1.8,3.6l-3.6,2.2l0.4,9.5l3.5,8.6l1.9-2.7l5.2-8.2l2.6-9.1l3.6-13.1l3-2.2l0.5,1.8l-2,1.6l-3.3,12.8l-4.2,11.3
	l-5,8.3l-0.5,4l1.8,3.1l1.1,4.5l2.1-4.3l5.6-3.3l5.4,1l5.7,3.3l3.8,6.1l2-2.7l5.4-6.7l3.9-0.9l-1.1,2.5l-3.3,3.3l-6.1,6.4l2.7,7.6
	l3.1,2.1l5.5,7.4l-1.9-11.4l3.8,15.6l-4.4-4.2l-3.7-6.1l-2.4-0.4l-3.4-5.2l-3.1,5.6l-4,2.8l4.6-6.4l1.5-5.3l-1.2-4.3l-4.9-5.5
	l-6.3-2.2l-4.2,0.7l-3.5,4.5l-2.6,5.5l-3,4.7l-1.9,3l2.8,5.6l-0.1,3.9l-0.9,9.4l2.9,6.1l-1.2,5.2l1.6,4.3l2.6-4.7l5.6,4.2l4.3-1.3
	l0.9,3.4l6.7,0.4l-0.1-3.3l-3-5.3l5.4,5.8l4.5,6.7l2.1-1l3.9,0.3l3.3-6.8l0.2-10.5l-3.2,3.7l-1.2,4.5l1.4,3.4l-2.7-1l-1-3.9l3.9-5.2
	l1.1-4.7l-4.2-3.3l1.1-4.5l3.3,4.5l3,4.2l5.6-8.2l4.5-4.5l6.4-1.3l14.1-17.4v-2.5l-2.4-5.9l-2.7-10.5l-3.4-3.3l-4.6,1.9l-5.4-0.4
	l-0.6-2.7l-1.6-2.7l-2,4.5l1.8,3.6l-0.2,4.5l1.5,8.8l4,6.8l3.5,4.3l0.1,3.9l-4-5.3l-2.8-5.8l-2.6,2.8l1.5-4.2l-1.4-3.9l-1.1-4.9
	L367,316l-4.6-0.7L362,313l3-0.4l6.2-1.8l0.2-2.1l-1.7-5.9l-3.7,5.3l-0.8,3l-0.4-2.5l4.3-8.5l2.7-3l-1.3-4l-3.4-6.5l-1.3,1l-0.9-2.4
	l-4.7-4.9l-4.8-5.6L353,267l3.4,5.2l5.6,3.6l3.7,7.1l3.1,0.9v-2.7l-2.7-7.7l3.3,6.1l2,7.7l5.4,8.3l3.2,2.5l6.2-1.3l10.3-13.8
	l0.7-7.9l6.6-5.6l3.9-0.4l0.7-15.3l1.3-11.1l1.9,3.6v8v12.8l0.5,5.5l-0.1,5.8l1.2,3.6L419.1,282.9L419.1,282.9z M294.1,360.7
	l9.4-0.9l3.9-2.7l4.4-2.4l5.7,3.7l2.9,1.3l1.1-3.4l-0.8-8.6l-0.9-10.2l-2.3-4.2l-4.6-3.6l-2.8-4.7l-6.3-1.9l-5.9-2.7l-1.3,4.6
	l-2.7,7l1.8,4.2l1.2,7.1l-2.8,4.7l-2.2,4l-0.4,4.3L294.1,360.7L294.1,360.7z M295.9,318.4l-1.8-0.7l-8.1,0.1l-3,3l-4.4,0.3l-5.4,3.9
	l-1.3,8.2v-8.9l1.1-6.5l-1.6-6.1l-6-8.2l-2.8-0.3l-7.8,11.9l-0.9,2.4l2.4,7.9L262,338l6,5.9l4,8.2l5.5,8.6l3.8,3.9l3.5-3.7l3.4-1.9
	l-0.1-2.5l1.1-7.6l2.9-4.9l0.6-5l-0.9-6.4l2-6.5L295.9,318.4L295.9,318.4z M296.7,207.5l2.3,13.4l5,1.5l7.8-0.9l7.3-2.8l4.1-5.2
	l2.3-6H296.7L296.7,207.5z M361.5,207.5h31.3l-1.8,4.2l-5.8,1.5l-6.1,2.4l-6.5-0.6l1.2-2.4l-1.2-2.4l-4.5,2.1L361.5,207.5
	L361.5,207.5z M184,207.5l1.8,6.6h2.8l8.5,4.7l5.1,2.2l7.9-3.4l7.5-5.5l3.3-4.6H184L184,207.5z M135.6,423.3l2.5,5.8l3.4-1.5
	l4.4-3.9l6.6-4.6l6.3-3.6l2.6-2.8l2-11.1l0.6-5.2l-2.2-2.5h-3.5l4.2-1.9l2.9,1.6l2.3-1.2l5.8-14.1l3.1-5.5l1-6.7l-3.4-4.9l0.6-5.2
	l-5.5-5l-3.4-4.7l-5.4,14.1l3.4-14.7l-2.9-6.5l-4.3,2.8l4.1-5l4,8l2.4,0.4l6.2,7.9l3.8,1.5l5.4-5.2l0.5-4.5l2.9-4.9v-3.6l-11.5-5.9
	l-6.8-5.3l-5-7.3l-0.1-7.3l2.8-2.8l1.4-3.9v-9.4l-4.4,0.1l-4.1,2.2l-2.7-4.2l-7.4-0.4l-2.8,2.1l-6.4,0.1l-3.1,3.9v11.4l3.6,2.7
	l1.9,5.9l1.7,2.1l-1.3,10.1l-0.6-8.5l-3-6.2l-2.4-3.1v18.5v17.6l4.4-4l0.8-4.6l0.9-5l2-3.9l5.6-0.4l6-5.9l3.4-2.2l5.2,0.3l-5.5,2.8
	l-5.1,4.6l-3.7,3.4l-4.8,1l-1,9.9l-4.2,6.8l-3.8,4.3v19.4h5.8l4.3-0.9l4,2.5l5.7,8.3l1.1,5l-3.6-4.5l-5.6-7.4l-5.2,0.4h-6.5V423.3
	L135.6,423.3z M226.8,265.1l-2.4,7.1l-2.8,1.3l-2.3-1.2l-3.9,1.5l-4.5,1.3l-5.5,1.6l-5.5,3.1l-6.9,3.7h-6.1l-4.9-6.2l3.4,6.8
	L184,288l8.9-0.1l2.6,7.6l0.8,10.5l-2,11l-0.6,9.4l-3.8,5.2l-3.3,3.6l-2.6-2.8l-7.3-4.6l-6.7-5.8l-5.2-6.7l-0.4-4.2l3.2-1.6l2-3.4
	v-7.3l-1-5.5l7.4-3.7l5.7-1.6l-3.7-1.3l-2.2-11.7l-2.1-11l-0.5-8.9l-1.5-3.6l-5.6-7.4l-0.6-4l4.4-1.9l6.7-4.9l5.2-7l3.5-8l5.2-0.9
	l4.6,4.2l7,2.8l-4,4l-3.3,7.9l-2.6,8.5l-0.5,7.3l3-11.4l3.3-8.9l3.9-3.1l-1.4,10.8l-5,7.3l0.2,10.1l0.6-8.5l1.7-1.2l4.7-6.1
	l-0.1-7.3l1.2-6.4l4.5,5.3l0.3,6.8l6.6,8.2l6.7,10.4L226.8,265.1L226.8,265.1z M181.3,207.5h-45.7v76.2l1.4,3.7l0.1,4.9l3.6,0.3
	l5.7-2.1l3.9-1.6l1.3-3l3.4,3.9l3.2,1.3l3.2,2.7l2.7-2.8l7.4-1.8l2.9-2.1l0.2-2.7l-2.2-2.5l-0.5-11.1l-2.2-9.2l-9.8-0.9l-1.5-1.9
	l-8.3-0.1l-2.4-1.9l-4-4.7l-1.3-4.5l-0.7-4l1-3.4v-4.2l-3-3.6l-1.9-11.1l2.9,9.6l2.9,3.4l1.1,3.7l-1.5,4.9l1.5,7.3l5.3,4.9h3.5
	l6.3,0.9l3.9,3.4l6.2,0.1l-0.4-5.8l-1.9-3.4l-3-5.2l-1.8-6.4l-0.9-5.6l0.1-8.8l2.6-8.2l-1.3-3.3l-4.4-1l-1.7-3l2,1.8l4.4,0.3l2,5.5
	l-2,4.3l-1.1,8.3l3,8.9l7.5-5.2l5.9-6.1l4.4-8.8l0.6-3.9L181.3,207.5L181.3,207.5z M386.5,490.9l8.5-6.2l8,1.2l11,0.7l5-13.9v18.1
	H386.5z"/>
</svg>
